<svg width="1440" height="1024" viewBox="0 0 1440 1024" fill="none" xmlns="http://www.w3.org/2000/svg">
<rect width="1440" height="1024" fill="#FB0707"/>
<path d="M93.2 240V216.8H111.6V123.2H93.2V100H150.8C169.6 100 183.867 104.8 193.6 114.4C203.467 123.867 208.4 138 208.4 156.8V183.2C208.4 202 203.467 216.2 193.6 225.8C183.867 235.267 169.6 240 150.8 240H93.2ZM138 216H151.2C161.867 216 169.667 213.2 174.6 207.6C179.533 202 182 194.133 182 184V156C182 145.733 179.533 137.867 174.6 132.4C169.667 126.8 161.867 124 151.2 124H138V216ZM286.403 242.8C276.536 242.8 267.803 240.733 260.203 236.6C252.736 232.333 246.87 226.4 242.603 218.8C238.47 211.067 236.403 202 236.403 191.6V189.2C236.403 178.8 238.47 169.8 242.603 162.2C246.736 154.467 252.536 148.533 260.003 144.4C267.47 140.133 276.136 138 286.003 138C295.736 138 304.203 140.2 311.403 144.6C318.603 148.867 324.203 154.867 328.203 162.6C332.203 170.2 334.203 179.067 334.203 189.2V197.8H262.003C262.27 204.6 264.803 210.133 269.603 214.4C274.403 218.667 280.27 220.8 287.203 220.8C294.27 220.8 299.47 219.267 302.803 216.2C306.136 213.133 308.67 209.733 310.403 206L331.003 216.8C329.136 220.267 326.403 224.067 322.803 228.2C319.336 232.2 314.67 235.667 308.803 238.6C302.936 241.4 295.47 242.8 286.403 242.8ZM262.203 179H308.603C308.07 173.267 305.736 168.667 301.603 165.2C297.603 161.733 292.336 160 285.803 160C279.003 160 273.603 161.733 269.603 165.2C265.603 168.667 263.136 173.267 262.203 179ZM407.833 242.8C394.899 242.8 384.299 240 376.033 234.4C367.766 228.8 362.766 220.8 361.033 210.4L384.233 204.4C385.166 209.067 386.699 212.733 388.833 215.4C391.099 218.067 393.833 220 397.033 221.2C400.366 222.267 403.966 222.8 407.833 222.8C413.699 222.8 418.033 221.8 420.833 219.8C423.633 217.667 425.033 215.067 425.033 212C425.033 208.933 423.699 206.6 421.033 205C418.366 203.267 414.099 201.867 408.233 200.8L402.633 199.8C395.699 198.467 389.366 196.667 383.633 194.4C377.899 192 373.299 188.733 369.833 184.6C366.366 180.467 364.633 175.133 364.633 168.6C364.633 158.733 368.233 151.2 375.433 146C382.633 140.667 392.099 138 403.833 138C414.899 138 424.099 140.467 431.433 145.4C438.766 150.333 443.566 156.8 445.833 164.8L422.433 172C421.366 166.933 419.166 163.333 415.833 161.2C412.633 159.067 408.633 158 403.833 158C399.033 158 395.366 158.867 392.833 160.6C390.299 162.2 389.033 164.467 389.033 167.4C389.033 170.6 390.366 173 393.033 174.6C395.699 176.067 399.299 177.2 403.833 178L409.433 179C416.899 180.333 423.633 182.133 429.633 184.4C435.766 186.533 440.566 189.667 444.033 193.8C447.633 197.8 449.433 203.267 449.433 210.2C449.433 220.6 445.633 228.667 438.033 234.4C430.566 240 420.499 242.8 407.833 242.8ZM481.516 240V100H506.716V177.4H510.316L543.116 140.8H575.916L530.116 188.8L577.516 240H545.116L510.316 200.6H506.716V240H481.516ZM642.406 240C635.873 240 630.54 238 626.406 234C622.406 229.867 620.406 224.4 620.406 217.6V161.6H595.606V140.8H620.406V110H645.606V140.8H672.806V161.6H645.606V213.2C645.606 217.2 647.473 219.2 651.206 219.2H670.406V240H642.406ZM749.302 242.8C739.435 242.8 730.568 240.8 722.702 236.8C714.835 232.8 708.635 227 704.102 219.4C699.568 211.8 697.302 202.667 697.302 192V188.8C697.302 178.133 699.568 169 704.102 161.4C708.635 153.8 714.835 148 722.702 144C730.568 140 739.435 138 749.302 138C759.168 138 768.035 140 775.902 144C783.768 148 789.968 153.8 794.502 161.4C799.035 169 801.302 178.133 801.302 188.8V192C801.302 202.667 799.035 211.8 794.502 219.4C789.968 227 783.768 232.8 775.902 236.8C768.035 240.8 759.168 242.8 749.302 242.8ZM749.302 220.4C757.035 220.4 763.435 217.933 768.502 213C773.568 207.933 776.102 200.733 776.102 191.4V189.4C776.102 180.067 773.568 172.933 768.502 168C763.568 162.933 757.168 160.4 749.302 160.4C741.568 160.4 735.168 162.933 730.102 168C725.035 172.933 722.502 180.067 722.502 189.4V191.4C722.502 200.733 725.035 207.933 730.102 213C735.168 217.933 741.568 220.4 749.302 220.4ZM834.563 280V140.8H859.363V152.8H862.963C865.229 148.933 868.763 145.533 873.563 142.6C878.363 139.533 885.229 138 894.163 138C902.163 138 909.563 140 916.363 144C923.163 147.867 928.629 153.6 932.763 161.2C936.896 168.8 938.963 178 938.963 188.8V192C938.963 202.8 936.896 212 932.763 219.6C928.629 227.2 923.163 233 916.363 237C909.563 240.867 902.163 242.8 894.163 242.8C888.163 242.8 883.096 242.067 878.963 240.6C874.963 239.267 871.696 237.533 869.163 235.4C866.763 233.133 864.829 230.867 863.363 228.6H859.763V280H834.563ZM886.563 220.8C894.429 220.8 900.896 218.333 905.963 213.4C911.163 208.333 913.763 201 913.763 191.4V189.4C913.763 179.8 911.163 172.533 905.963 167.6C900.763 162.533 894.296 160 886.563 160C878.829 160 872.363 162.533 867.163 167.6C861.963 172.533 859.363 179.8 859.363 189.4V191.4C859.363 201 861.963 208.333 867.163 213.4C872.363 218.333 878.829 220.8 886.563 220.8Z" fill="white"/>
<path d="M102.256 384V341.58H100.996L94.4163 357.12H85.0363L95.0463 335H111.216V384H102.256ZM152.94 384.98C148.413 384.98 144.703 384 141.81 382.04C138.917 380.08 137.167 377.28 136.56 373.64L144.68 371.54C145.007 373.173 145.543 374.457 146.29 375.39C147.083 376.323 148.04 377 149.16 377.42C150.327 377.793 151.587 377.98 152.94 377.98C154.993 377.98 156.51 377.63 157.49 376.93C158.47 376.183 158.96 375.273 158.96 374.2C158.96 373.127 158.493 372.31 157.56 371.75C156.627 371.143 155.133 370.653 153.08 370.28L151.12 369.93C148.693 369.463 146.477 368.833 144.47 368.04C142.463 367.2 140.853 366.057 139.64 364.61C138.427 363.163 137.82 361.297 137.82 359.01C137.82 355.557 139.08 352.92 141.6 351.1C144.12 349.233 147.433 348.3 151.54 348.3C155.413 348.3 158.633 349.163 161.2 350.89C163.767 352.617 165.447 354.88 166.24 357.68L158.05 360.2C157.677 358.427 156.907 357.167 155.74 356.42C154.62 355.673 153.22 355.3 151.54 355.3C149.86 355.3 148.577 355.603 147.69 356.21C146.803 356.77 146.36 357.563 146.36 358.59C146.36 359.71 146.827 360.55 147.76 361.11C148.693 361.623 149.953 362.02 151.54 362.3L153.5 362.65C156.113 363.117 158.47 363.747 160.57 364.54C162.717 365.287 164.397 366.383 165.61 367.83C166.87 369.23 167.5 371.143 167.5 373.57C167.5 377.21 166.17 380.033 163.51 382.04C160.897 384 157.373 384.98 152.94 384.98ZM191.539 384.98C188.179 384.98 185.122 384.28 182.369 382.88C179.662 381.48 177.516 379.45 175.929 376.79C174.342 374.13 173.549 370.91 173.549 367.13V366.15C173.549 362.37 174.342 359.15 175.929 356.49C177.516 353.83 179.662 351.8 182.369 350.4C185.122 349 188.179 348.3 191.539 348.3C194.852 348.3 197.699 348.883 200.079 350.05C202.459 351.217 204.372 352.827 205.819 354.88C207.312 356.887 208.292 359.173 208.759 361.74L200.219 363.56C200.032 362.16 199.612 360.9 198.959 359.78C198.306 358.66 197.372 357.773 196.159 357.12C194.992 356.467 193.522 356.14 191.749 356.14C189.976 356.14 188.366 356.537 186.919 357.33C185.519 358.077 184.399 359.22 183.559 360.76C182.766 362.253 182.369 364.097 182.369 366.29V366.99C182.369 369.183 182.766 371.05 183.559 372.59C184.399 374.083 185.519 375.227 186.919 376.02C188.366 376.767 189.976 377.14 191.749 377.14C194.409 377.14 196.416 376.463 197.769 375.11C199.169 373.71 200.056 371.89 200.429 369.65L208.969 371.68C208.362 374.153 207.312 376.417 205.819 378.47C204.372 380.477 202.459 382.063 200.079 383.23C197.699 384.397 194.852 384.98 191.539 384.98ZM216.245 384V349.28H224.925V353.2H226.185C226.698 351.8 227.538 350.773 228.705 350.12C229.918 349.467 231.318 349.14 232.905 349.14H237.105V356.98H232.765C230.525 356.98 228.681 357.587 227.235 358.8C225.788 359.967 225.065 361.787 225.065 364.26V384H216.245ZM258.588 384.98C255.135 384.98 252.078 384.257 249.418 382.81C246.805 381.317 244.751 379.24 243.258 376.58C241.811 373.873 241.088 370.7 241.088 367.06V366.22C241.088 362.58 241.811 359.43 243.258 356.77C244.705 354.063 246.735 351.987 249.348 350.54C251.961 349.047 254.995 348.3 258.448 348.3C261.855 348.3 264.818 349.07 267.338 350.61C269.858 352.103 271.818 354.203 273.218 356.91C274.618 359.57 275.318 362.673 275.318 366.22V369.23H250.048C250.141 371.61 251.028 373.547 252.708 375.04C254.388 376.533 256.441 377.28 258.868 377.28C261.341 377.28 263.161 376.743 264.328 375.67C265.495 374.597 266.381 373.407 266.988 372.1L274.198 375.88C273.545 377.093 272.588 378.423 271.328 379.87C270.115 381.27 268.481 382.483 266.428 383.51C264.375 384.49 261.761 384.98 258.588 384.98ZM250.118 362.65H266.358C266.171 360.643 265.355 359.033 263.908 357.82C262.508 356.607 260.665 356 258.378 356C255.998 356 254.108 356.607 252.708 357.82C251.308 359.033 250.445 360.643 250.118 362.65ZM298.989 384.98C295.535 384.98 292.479 384.257 289.819 382.81C287.205 381.317 285.152 379.24 283.659 376.58C282.212 373.873 281.489 370.7 281.489 367.06V366.22C281.489 362.58 282.212 359.43 283.659 356.77C285.105 354.063 287.135 351.987 289.749 350.54C292.362 349.047 295.395 348.3 298.849 348.3C302.255 348.3 305.219 349.07 307.739 350.61C310.259 352.103 312.219 354.203 313.619 356.91C315.019 359.57 315.719 362.673 315.719 366.22V369.23H290.449C290.542 371.61 291.429 373.547 293.109 375.04C294.789 376.533 296.842 377.28 299.269 377.28C301.742 377.28 303.562 376.743 304.729 375.67C305.895 374.597 306.782 373.407 307.389 372.1L314.599 375.88C313.945 377.093 312.989 378.423 311.729 379.87C310.515 381.27 308.882 382.483 306.829 383.51C304.775 384.49 302.162 384.98 298.989 384.98ZM290.519 362.65H306.759C306.572 360.643 305.755 359.033 304.309 357.82C302.909 356.607 301.065 356 298.779 356C296.399 356 294.509 356.607 293.109 357.82C291.709 359.033 290.845 360.643 290.519 362.65ZM323.569 384V349.28H332.249V353.83H333.509C334.069 352.617 335.119 351.473 336.659 350.4C338.199 349.28 340.532 348.72 343.659 348.72C346.366 348.72 348.722 349.35 350.729 350.61C352.782 351.823 354.369 353.527 355.489 355.72C356.609 357.867 357.169 360.387 357.169 363.28V384H348.349V363.98C348.349 361.367 347.696 359.407 346.389 358.1C345.129 356.793 343.309 356.14 340.929 356.14C338.222 356.14 336.122 357.05 334.629 358.87C333.136 360.643 332.389 363.14 332.389 366.36V384H323.569Z" fill="white"/>
</svg>
