<svg width="320" height="635" viewBox="0 0 320 635" fill="none" xmlns="http://www.w3.org/2000/svg">
<rect width="320" height="635" fill="#0E17F1"/>
<path d="M51.7118 118V69H68.8618L77.3318 111.7H78.5918L87.0618 69H104.212V118H95.2518V75.79H93.9918L85.5918 118H70.3318L61.9318 75.79H60.6718V118H51.7118ZM130.24 118.98C126.787 118.98 123.684 118.28 120.93 116.88C118.177 115.48 116.007 113.45 114.42 110.79C112.834 108.13 112.04 104.933 112.04 101.2V100.08C112.04 96.3467 112.834 93.15 114.42 90.49C116.007 87.83 118.177 85.8 120.93 84.4C123.684 83 126.787 82.3 130.24 82.3C133.694 82.3 136.797 83 139.55 84.4C142.304 85.8 144.474 87.83 146.06 90.49C147.647 93.15 148.44 96.3467 148.44 100.08V101.2C148.44 104.933 147.647 108.13 146.06 110.79C144.474 113.45 142.304 115.48 139.55 116.88C136.797 118.28 133.694 118.98 130.24 118.98ZM130.24 111.14C132.947 111.14 135.187 110.277 136.96 108.55C138.734 106.777 139.62 104.257 139.62 100.99V100.29C139.62 97.0233 138.734 94.5267 136.96 92.8C135.234 91.0267 132.994 90.14 130.24 90.14C127.534 90.14 125.294 91.0267 123.52 92.8C121.747 94.5267 120.86 97.0233 120.86 100.29V100.99C120.86 104.257 121.747 106.777 123.52 108.55C125.294 110.277 127.534 111.14 130.24 111.14ZM177.442 118.98C174.315 118.98 171.912 118.443 170.232 117.37C168.552 116.297 167.315 115.107 166.522 113.8H165.262V118H156.582V69H165.402V87.27H166.662C167.175 86.43 167.852 85.6367 168.692 84.89C169.578 84.1433 170.722 83.5367 172.122 83.07C173.568 82.5567 175.342 82.3 177.442 82.3C180.242 82.3 182.832 83 185.212 84.4C187.592 85.7533 189.505 87.76 190.952 90.42C192.398 93.08 193.122 96.3 193.122 100.08V101.2C193.122 104.98 192.398 108.2 190.952 110.86C189.505 113.52 187.592 115.55 185.212 116.95C182.832 118.303 180.242 118.98 177.442 118.98ZM174.782 111.28C177.488 111.28 179.752 110.417 181.572 108.69C183.392 106.917 184.302 104.35 184.302 100.99V100.29C184.302 96.93 183.392 94.3867 181.572 92.66C179.798 90.8867 177.535 90 174.782 90C172.075 90 169.812 90.8867 167.992 92.66C166.172 94.3867 165.262 96.93 165.262 100.29V100.99C165.262 104.35 166.172 106.917 167.992 108.69C169.812 110.417 172.075 111.28 174.782 111.28ZM201.22 118V83.28H210.04V118H201.22ZM205.63 79.22C204.044 79.22 202.69 78.7067 201.57 77.68C200.497 76.6533 199.96 75.3 199.96 73.62C199.96 71.94 200.497 70.5867 201.57 69.56C202.69 68.5333 204.044 68.02 205.63 68.02C207.264 68.02 208.617 68.5333 209.69 69.56C210.764 70.5867 211.3 71.94 211.3 73.62C211.3 75.3 210.764 76.6533 209.69 77.68C208.617 78.7067 207.264 79.22 205.63 79.22ZM219.814 118V69H228.634V118H219.814ZM254.228 118.98C250.774 118.98 247.718 118.257 245.058 116.81C242.444 115.317 240.391 113.24 238.898 110.58C237.451 107.873 236.728 104.7 236.728 101.06V100.22C236.728 96.58 237.451 93.43 238.898 90.77C240.344 88.0633 242.374 85.9867 244.988 84.54C247.601 83.0467 250.634 82.3 254.088 82.3C257.494 82.3 260.458 83.07 262.978 84.61C265.498 86.1033 267.458 88.2033 268.858 90.91C270.258 93.57 270.958 96.6733 270.958 100.22V103.23H245.688C245.781 105.61 246.668 107.547 248.348 109.04C250.028 110.533 252.081 111.28 254.508 111.28C256.981 111.28 258.801 110.743 259.968 109.67C261.134 108.597 262.021 107.407 262.628 106.1L269.838 109.88C269.184 111.093 268.228 112.423 266.968 113.87C265.754 115.27 264.121 116.483 262.068 117.51C260.014 118.49 257.401 118.98 254.228 118.98ZM245.758 96.65H261.998C261.811 94.6433 260.994 93.0333 259.548 91.82C258.148 90.6067 256.304 90 254.018 90C251.638 90 249.748 90.6067 248.348 91.82C246.948 93.0333 246.084 94.6433 245.758 96.65Z" fill="white"/>
<path d="M59.7043 199V169.912H58.8403L54.3283 180.568H47.8963L54.7603 165.4H65.8483V199H59.7043ZM94.4589 199.672C91.3549 199.672 88.8109 199 86.8269 197.656C84.8429 196.312 83.6429 194.392 83.2269 191.896L88.7949 190.456C89.0189 191.576 89.3869 192.456 89.8989 193.096C90.4429 193.736 91.0989 194.2 91.8669 194.488C92.6669 194.744 93.5309 194.872 94.4589 194.872C95.8669 194.872 96.9069 194.632 97.5789 194.152C98.2509 193.64 98.5869 193.016 98.5869 192.28C98.5869 191.544 98.2669 190.984 97.6269 190.6C96.9869 190.184 95.9629 189.848 94.5549 189.592L93.2109 189.352C91.5469 189.032 90.0269 188.6 88.6509 188.056C87.2749 187.48 86.1709 186.696 85.3389 185.704C84.5069 184.712 84.0909 183.432 84.0909 181.864C84.0909 179.496 84.9549 177.688 86.6829 176.44C88.4109 175.16 90.6829 174.52 93.4989 174.52C96.1549 174.52 98.3629 175.112 100.123 176.296C101.883 177.48 103.035 179.032 103.579 180.952L97.9629 182.68C97.7069 181.464 97.1789 180.6 96.3789 180.088C95.6109 179.576 94.6509 179.32 93.4989 179.32C92.3469 179.32 91.4669 179.528 90.8589 179.944C90.2509 180.328 89.9469 180.872 89.9469 181.576C89.9469 182.344 90.2669 182.92 90.9069 183.304C91.5469 183.656 92.4109 183.928 93.4989 184.12L94.8429 184.36C96.6349 184.68 98.2509 185.112 99.6909 185.656C101.163 186.168 102.315 186.92 103.147 187.912C104.011 188.872 104.443 190.184 104.443 191.848C104.443 194.344 103.531 196.28 101.707 197.656C99.9149 199 97.4989 199.672 94.4589 199.672ZM120.927 199.672C118.623 199.672 116.527 199.192 114.639 198.232C112.783 197.272 111.311 195.88 110.223 194.056C109.135 192.232 108.591 190.024 108.591 187.432V186.76C108.591 184.168 109.135 181.96 110.223 180.136C111.311 178.312 112.783 176.92 114.639 175.96C116.527 175 118.623 174.52 120.927 174.52C123.199 174.52 125.151 174.92 126.783 175.72C128.415 176.52 129.727 177.624 130.719 179.032C131.743 180.408 132.415 181.976 132.735 183.736L126.879 184.984C126.751 184.024 126.463 183.16 126.015 182.392C125.567 181.624 124.927 181.016 124.095 180.568C123.295 180.12 122.287 179.896 121.071 179.896C119.855 179.896 118.751 180.168 117.759 180.712C116.799 181.224 116.031 182.008 115.455 183.064C114.911 184.088 114.639 185.352 114.639 186.856V187.336C114.639 188.84 114.911 190.12 115.455 191.176C116.031 192.2 116.799 192.984 117.759 193.528C118.751 194.04 119.855 194.296 121.071 194.296C122.895 194.296 124.271 193.832 125.199 192.904C126.159 191.944 126.767 190.696 127.023 189.16L132.879 190.552C132.463 192.248 131.743 193.8 130.719 195.208C129.727 196.584 128.415 197.672 126.783 198.472C125.151 199.272 123.199 199.672 120.927 199.672ZM137.868 199V175.192H143.82V177.88H144.684C145.036 176.92 145.612 176.216 146.412 175.768C147.244 175.32 148.204 175.096 149.292 175.096H152.172V180.472H149.196C147.66 180.472 146.396 180.888 145.404 181.72C144.412 182.52 143.916 183.768 143.916 185.464V199H137.868ZM166.903 199.672C164.535 199.672 162.439 199.176 160.615 198.184C158.823 197.16 157.415 195.736 156.391 193.912C155.399 192.056 154.903 189.88 154.903 187.384V186.808C154.903 184.312 155.399 182.152 156.391 180.328C157.383 178.472 158.775 177.048 160.567 176.056C162.359 175.032 164.439 174.52 166.807 174.52C169.143 174.52 171.175 175.048 172.903 176.104C174.631 177.128 175.975 178.568 176.935 180.424C177.895 182.248 178.375 184.376 178.375 186.808V188.872H161.047C161.111 190.504 161.719 191.832 162.871 192.856C164.023 193.88 165.431 194.392 167.095 194.392C168.791 194.392 170.039 194.024 170.839 193.288C171.639 192.552 172.247 191.736 172.663 190.84L177.607 193.432C177.159 194.264 176.503 195.176 175.639 196.168C174.807 197.128 173.687 197.96 172.279 198.664C170.871 199.336 169.079 199.672 166.903 199.672ZM161.095 184.36H172.231C172.103 182.984 171.543 181.88 170.551 181.048C169.591 180.216 168.327 179.8 166.759 179.8C165.127 179.8 163.831 180.216 162.871 181.048C161.911 181.88 161.319 182.984 161.095 184.36ZM194.606 199.672C192.238 199.672 190.142 199.176 188.318 198.184C186.526 197.16 185.118 195.736 184.094 193.912C183.102 192.056 182.606 189.88 182.606 187.384V186.808C182.606 184.312 183.102 182.152 184.094 180.328C185.086 178.472 186.478 177.048 188.27 176.056C190.062 175.032 192.142 174.52 194.51 174.52C196.846 174.52 198.878 175.048 200.606 176.104C202.334 177.128 203.678 178.568 204.638 180.424C205.598 182.248 206.078 184.376 206.078 186.808V188.872H188.75C188.814 190.504 189.422 191.832 190.574 192.856C191.726 193.88 193.134 194.392 194.798 194.392C196.494 194.392 197.742 194.024 198.542 193.288C199.342 192.552 199.95 191.736 200.366 190.84L205.31 193.432C204.862 194.264 204.206 195.176 203.342 196.168C202.51 197.128 201.39 197.96 199.982 198.664C198.574 199.336 196.782 199.672 194.606 199.672ZM188.798 184.36H199.934C199.806 182.984 199.246 181.88 198.254 181.048C197.294 180.216 196.03 179.8 194.462 179.8C192.83 179.8 191.534 180.216 190.574 181.048C189.614 181.88 189.022 182.984 188.798 184.36ZM211.462 199V175.192H217.414V178.312H218.278C218.662 177.48 219.382 176.696 220.438 175.96C221.494 175.192 223.094 174.808 225.238 174.808C227.094 174.808 228.71 175.24 230.086 176.104C231.494 176.936 232.582 178.104 233.35 179.608C234.118 181.08 234.502 182.808 234.502 184.792V199H228.454V185.272C228.454 183.48 228.006 182.136 227.11 181.24C226.246 180.344 224.998 179.896 223.366 179.896C221.51 179.896 220.07 180.52 219.046 181.768C218.022 182.984 217.51 184.696 217.51 186.904V199H211.462Z" fill="white"/>
</svg>
