<svg width="1440" height="1024" viewBox="0 0 1440 1024" fill="none" xmlns="http://www.w3.org/2000/svg">
<rect width="1440" height="1024" fill="#FFB800"/>
<path d="M123.2 240L87.6 100H114.8L144.4 223H147.2L176.8 100H204L168.4 240H123.2ZM231.633 240V140.8H256.833V240H231.633ZM244.233 129.2C239.699 129.2 235.833 127.733 232.633 124.8C229.566 121.867 228.033 118 228.033 113.2C228.033 108.4 229.566 104.533 232.633 101.6C235.833 98.6667 239.699 97.2 244.233 97.2C248.899 97.2 252.766 98.6667 255.833 101.6C258.899 104.533 260.433 108.4 260.433 113.2C260.433 118 258.899 121.867 255.833 124.8C252.766 127.733 248.899 129.2 244.233 129.2ZM334.758 242.8C326.891 242.8 319.491 240.867 312.558 237C305.758 233 300.291 227.2 296.158 219.6C292.024 212 289.958 202.8 289.958 192V188.8C289.958 178 292.024 168.8 296.158 161.2C300.291 153.6 305.758 147.867 312.558 144C319.358 140 326.758 138 334.758 138C340.758 138 345.758 138.733 349.758 140.2C353.891 141.533 357.224 143.267 359.758 145.4C362.291 147.533 364.224 149.8 365.558 152.2H369.158V100H394.358V240H369.558V228H365.958C363.691 231.733 360.158 235.133 355.358 238.2C350.691 241.267 343.824 242.8 334.758 242.8ZM342.358 220.8C350.091 220.8 356.558 218.333 361.758 213.4C366.958 208.333 369.558 201 369.558 191.4V189.4C369.558 179.8 366.958 172.533 361.758 167.6C356.691 162.533 350.224 160 342.358 160C334.624 160 328.158 162.533 322.958 167.6C317.758 172.533 315.158 179.8 315.158 189.4V191.4C315.158 201 317.758 208.333 322.958 213.4C328.158 218.333 334.624 220.8 342.358 220.8ZM477.497 242.8C467.63 242.8 458.897 240.733 451.297 236.6C443.83 232.333 437.964 226.4 433.697 218.8C429.564 211.067 427.497 202 427.497 191.6V189.2C427.497 178.8 429.564 169.8 433.697 162.2C437.83 154.467 443.63 148.533 451.097 144.4C458.564 140.133 467.23 138 477.097 138C486.83 138 495.297 140.2 502.497 144.6C509.697 148.867 515.297 154.867 519.297 162.6C523.297 170.2 525.297 179.067 525.297 189.2V197.8H453.097C453.364 204.6 455.897 210.133 460.697 214.4C465.497 218.667 471.364 220.8 478.297 220.8C485.364 220.8 490.564 219.267 493.897 216.2C497.23 213.133 499.764 209.733 501.497 206L522.097 216.8C520.23 220.267 517.497 224.067 513.897 228.2C510.43 232.2 505.764 235.667 499.897 238.6C494.03 241.4 486.564 242.8 477.497 242.8ZM453.297 179H499.697C499.164 173.267 496.83 168.667 492.697 165.2C488.697 161.733 483.43 160 476.897 160C470.097 160 464.697 161.733 460.697 165.2C456.697 168.667 454.23 173.267 453.297 179ZM604.927 242.8C595.06 242.8 586.193 240.8 578.327 236.8C570.46 232.8 564.26 227 559.727 219.4C555.193 211.8 552.927 202.667 552.927 192V188.8C552.927 178.133 555.193 169 559.727 161.4C564.26 153.8 570.46 148 578.327 144C586.193 140 595.06 138 604.927 138C614.793 138 623.66 140 631.527 144C639.393 148 645.593 153.8 650.127 161.4C654.66 169 656.927 178.133 656.927 188.8V192C656.927 202.667 654.66 211.8 650.127 219.4C645.593 227 639.393 232.8 631.527 236.8C623.66 240.8 614.793 242.8 604.927 242.8ZM604.927 220.4C612.66 220.4 619.06 217.933 624.127 213C629.193 207.933 631.727 200.733 631.727 191.4V189.4C631.727 180.067 629.193 172.933 624.127 168C619.193 162.933 612.793 160.4 604.927 160.4C597.193 160.4 590.793 162.933 585.727 168C580.66 172.933 578.127 180.067 578.127 189.4V191.4C578.127 200.733 580.66 207.933 585.727 213C590.793 217.933 597.193 220.4 604.927 220.4Z" fill="white"/>
</svg>
