<svg width="70" height="70" viewBox="0 0 70 70" fill="none" xmlns="http://www.w3.org/2000/svg">
<circle cx="35" cy="35" r="35" fill="white"/>
<path d="M36.6667 50H30V30H36.6667V33.3333C38.0877 31.5254 40.2427 30.4476 42.5417 30.395C46.676 30.418 50.012 33.7823 50 37.9167V50H43.3333V38.75C43.0667 36.8877 41.4696 35.506 39.5883 35.51C38.7655 35.536 37.9887 35.8963 37.4374 36.5077C36.8861 37.1191 36.6077 37.9288 36.6667 38.75V50ZM26.6667 50H20V30H26.6667V50ZM23.3333 26.6667C21.4924 26.6667 20 25.1743 20 23.3333C20 21.4924 21.4924 20 23.3333 20C25.1743 20 26.6667 21.4924 26.6667 23.3333C26.6667 24.2174 26.3155 25.0652 25.6904 25.6904C25.0652 26.3155 24.2174 26.6667 23.3333 26.6667Z" fill="#151515"/>
</svg>
