<svg width="28" height="24" viewBox="0 0 28 24" fill="none" xmlns="http://www.w3.org/2000/svg">
<path d="M11.0976 3.10408V8.81802C11.0976 9.41476 10.8278 9.98705 10.3475 10.409L5.69107 14.5M11.0976 3.10408C10.8117 3.12743 10.5271 3.15465 10.2439 3.18568M11.0976 3.10408C11.9407 3.03521 12.7949 3 13.6585 3C14.5221 3 15.3764 3.03521 16.2195 3.10408M16.2195 3.10408V8.81802C16.2195 9.41476 16.4893 9.98705 16.9696 10.409L22.5366 15.3M16.2195 3.10408C16.5054 3.12743 16.7899 3.15465 17.0732 3.18568M22.5366 15.3L20.7495 15.6925C18.3772 16.2136 15.8457 15.9608 13.6585 15C11.4714 14.0392 8.93991 13.7864 6.56759 14.3075L5.69107 14.5M22.5366 15.3L24.1326 16.7022C25.5347 17.9341 24.873 20.0202 22.9184 20.3134C19.9086 20.7649 16.8148 21 13.6585 21C10.5023 21 7.40851 20.7649 4.39873 20.3134C2.44406 20.0202 1.78234 17.9341 3.18449 16.7022L5.69107 14.5" stroke="white" stroke-width="1.5" stroke-linecap="round" stroke-linejoin="round"/>
</svg>
